<?xml version="1.0" encoding="utf-8"?>
<!-- Generated by IcoMoon.io -->
<!DOCTYPE svg PUBLIC "-//W3C//DTD SVG 1.1//EN" "http://www.w3.org/Graphics/SVG/1.1/DTD/svg11.dtd">
<svg version="1.1" xmlns="http://www.w3.org/2000/svg" xmlns:xlink="http://www.w3.org/1999/xlink" width="496" height="16" viewBox="0 0 496 16">
<svg id="icon-home" width="16" height="16" viewBox="0 0 16 16" x="0" y="0">
<path d="M16 9.226l-8-6.21-8 6.21v-2.532l8-6.21 8 6.21zM14 9v6h-4v-4h-4v4h-4v-6l6-4.5z"></path>
</svg>
<svg id="icon-profile" width="16" height="16" viewBox="0 0 16 16" x="32" y="0">
<path d="M13.5 0h-12c-0.825 0-1.5 0.675-1.5 1.5v13c0 0.825 0.675 1.5 1.5 1.5h12c0.825 0 1.5-0.675 1.5-1.5v-13c0-0.825-0.675-1.5-1.5-1.5zM13 14h-11v-12h11v12zM4 9h7v1h-7zM4 11h7v1h-7zM5 4.5c0-0.828 0.672-1.5 1.5-1.5s1.5 0.672 1.5 1.5c0 0.828-0.672 1.5-1.5 1.5s-1.5-0.672-1.5-1.5zM7.5 6h-2c-0.825 0-1.5 0.45-1.5 1v1h5v-1c0-0.55-0.675-1-1.5-1z"></path>
</svg>
<svg id="icon-coin-dollar" width="16" height="16" viewBox="0 0 16 16" x="64" y="0">
<path d="M7.5 1c-4.142 0-7.5 3.358-7.5 7.5s3.358 7.5 7.5 7.5c4.142 0 7.5-3.358 7.5-7.5s-3.358-7.5-7.5-7.5zM7.5 14.5c-3.314 0-6-2.686-6-6s2.686-6 6-6c3.314 0 6 2.686 6 6s-2.686 6-6 6zM8 8v-2h2v-1h-2v-1h-1v1h-2v4h2v2h-2v1h2v1h1v-1h2l-0-4h-2zM7 8h-1v-2h1v2zM9 11h-1v-2h1v2z"></path>
</svg>
<svg id="icon-lifebuoy" width="16" height="16" viewBox="0 0 16 16" x="96" y="0">
<path d="M8 0c-4.418 0-8 3.582-8 8s3.582 8 8 8 8-3.582 8-8-3.582-8-8-8zM5 8c0-1.657 1.343-3 3-3s3 1.343 3 3-1.343 3-3 3-3-1.343-3-3zM14.468 10.679v0l-2.772-1.148c0.196-0.472 0.304-0.989 0.304-1.531s-0.108-1.059-0.304-1.531l2.772-1.148c0.342 0.825 0.532 1.73 0.532 2.679s-0.189 1.854-0.532 2.679v0zM10.679 1.532v0 0l-1.148 2.772c-0.472-0.196-0.989-0.304-1.531-0.304s-1.059 0.108-1.531 0.304l-1.148-2.772c0.825-0.342 1.73-0.532 2.679-0.532s1.854 0.189 2.679 0.532zM1.532 5.321l2.772 1.148c-0.196 0.472-0.304 0.989-0.304 1.531s0.108 1.059 0.304 1.531l-2.772 1.148c-0.342-0.825-0.532-1.73-0.532-2.679s0.189-1.854 0.532-2.679zM5.321 14.468l1.148-2.772c0.472 0.196 0.989 0.304 1.531 0.304s1.059-0.108 1.531-0.304l1.148 2.772c-0.825 0.342-1.73 0.532-2.679 0.532s-1.854-0.189-2.679-0.532z"></path>
</svg>
<svg id="icon-address-book" width="16" height="16" viewBox="0 0 16 16" x="128" y="0">
<path d="M3 0v16h12v-16h-12zM9 4.005c1.102 0 1.995 0.893 1.995 1.995s-0.893 1.995-1.995 1.995-1.995-0.893-1.995-1.995 0.893-1.995 1.995-1.995v0zM12 12h-6v-1c0-1.105 0.895-2 2-2v0h2c1.105 0 2 0.895 2 2v1z"></path>
<path d="M1 1h1.5v3h-1.5v-3z"></path>
<path d="M1 5h1.5v3h-1.5v-3z"></path>
<path d="M1 9h1.5v3h-1.5v-3z"></path>
<path d="M1 13h1.5v3h-1.5v-3z"></path>
</svg>
<svg id="icon-envelop" width="16" height="16" viewBox="0 0 16 16" x="160" y="0">
<path d="M14.5 2h-13c-0.825 0-1.5 0.675-1.5 1.5v10c0 0.825 0.675 1.5 1.5 1.5h13c0.825 0 1.5-0.675 1.5-1.5v-10c0-0.825-0.675-1.5-1.5-1.5zM6.23 8.6l-4.23 3.295v-7.838l4.23 4.543zM2.756 4h10.488l-5.244 3.938-5.244-3.938zM6.395 8.777l1.605 1.723 1.605-1.723 3.29 4.223h-9.79l3.29-4.223zM9.77 8.6l4.23-4.543v7.838l-4.23-3.295z"></path>
</svg>
<svg id="icon-bubbles4" width="18" height="16" viewBox="0 0 18 16" x="192" y="0">
<path d="M7.5 2c-0.792 0-1.556 0.124-2.272 0.369-0.671 0.23-1.267 0.554-1.773 0.963-0.938 0.759-1.455 1.731-1.455 2.737 0 0.562 0.157 1.109 0.467 1.623 0.323 0.537 0.811 1.028 1.41 1.421 0.476 0.312 0.796 0.812 0.881 1.374 0.014 0.094 0.025 0.188 0.034 0.282 0.043-0.039 0.085-0.080 0.127-0.122 0.377-0.376 0.886-0.583 1.411-0.583 0.084 0 0.167 0.005 0.251 0.016 0.303 0.038 0.611 0.058 0.918 0.058 0.792 0 1.556-0.124 2.272-0.369 0.671-0.23 1.267-0.554 1.774-0.963 0.938-0.759 1.455-1.731 1.455-2.737s-0.517-1.978-1.455-2.737c-0.506-0.41-1.103-0.734-1.774-0.963-0.716-0.245-1.48-0.369-2.272-0.369zM7.5 0v0c4.142 0 7.5 2.717 7.5 6.069s-3.358 6.069-7.5 6.069c-0.398 0-0.788-0.025-1.169-0.074-1.611 1.605-3.471 1.892-5.331 1.935v-0.393c1.004-0.49 1.813-1.382 1.813-2.402 0-0.142-0.011-0.282-0.032-0.419-1.696-1.113-2.781-2.812-2.781-4.717 0-3.352 3.358-6.069 7.5-6.069zM15.563 13.604c0 0.874 0.567 1.639 1.438 2.059v0.337c-1.611-0.036-3.090-0.283-4.487-1.658-0.33 0.041-0.669 0.063-1.013 0.063-1.492 0-2.866-0.402-3.963-1.079 2.261-0.008 4.395-0.732 6.013-2.042 0.816-0.66 1.459-1.435 1.913-2.302 0.481-0.92 0.724-1.9 0.724-2.913 0-0.163-0.007-0.326-0.020-0.487 1.134 0.936 1.832 2.213 1.832 3.62 0 1.633-0.94 3.089-2.41 4.043-0.018 0.117-0.027 0.237-0.027 0.359z"></path>
</svg>
<svg id="icon-facebook2" width="16" height="16" viewBox="0 0 16 16" x="224" y="0">
<path d="M14.5 0h-13c-0.825 0-1.5 0.675-1.5 1.5v13c0 0.825 0.675 1.5 1.5 1.5h6.5v-7h-2v-2h2v-1c0-1.653 1.347-3 3-3h2v2h-2c-0.55 0-1 0.45-1 1v1h3l-0.5 2h-2.5v7h4.5c0.825 0 1.5-0.675 1.5-1.5v-13c0-0.825-0.675-1.5-1.5-1.5z"></path>
</svg>
<svg id="icon-twitter" width="16" height="16" viewBox="0 0 16 16" x="256" y="0">
<path d="M16 3.538c-0.588 0.263-1.222 0.438-1.884 0.516 0.678-0.406 1.197-1.050 1.444-1.816-0.634 0.375-1.338 0.65-2.084 0.797-0.6-0.638-1.453-1.034-2.397-1.034-1.813 0-3.281 1.469-3.281 3.281 0 0.256 0.028 0.506 0.084 0.747-2.728-0.138-5.147-1.444-6.766-3.431-0.281 0.484-0.444 1.050-0.444 1.65 0 1.138 0.578 2.144 1.459 2.731-0.538-0.016-1.044-0.166-1.488-0.409 0 0.013 0 0.028 0 0.041 0 1.591 1.131 2.919 2.634 3.219-0.275 0.075-0.566 0.116-0.866 0.116-0.212 0-0.416-0.022-0.619-0.059 0.419 1.303 1.631 2.253 3.066 2.281-1.125 0.881-2.538 1.406-4.078 1.406-0.266 0-0.525-0.016-0.784-0.047 1.456 0.934 3.181 1.475 5.034 1.475 6.037 0 9.341-5.003 9.341-9.341 0-0.144-0.003-0.284-0.009-0.425 0.641-0.459 1.197-1.038 1.637-1.697z"></path>
</svg>
<svg id="icon-file-pdf" width="16" height="16" viewBox="0 0 16 16" x="288" y="0">
<path d="M13.156 9.211c-0.213-0.21-0.686-0.321-1.406-0.331-0.487-0.005-1.073 0.038-1.69 0.124-0.276-0.159-0.561-0.333-0.784-0.542-0.601-0.561-1.103-1.34-1.415-2.197 0.020-0.080 0.038-0.15 0.054-0.222 0 0 0.339-1.923 0.249-2.573-0.012-0.089-0.020-0.115-0.044-0.184l-0.029-0.076c-0.092-0.212-0.273-0.437-0.556-0.425l-0.171-0.005c-0.316 0-0.573 0.161-0.64 0.403-0.205 0.757 0.007 1.889 0.39 3.355l-0.098 0.239c-0.275 0.67-0.619 1.345-0.923 1.94l-0.040 0.077c-0.32 0.626-0.61 1.157-0.873 1.607l-0.271 0.144c-0.020 0.010-0.485 0.257-0.594 0.323-0.926 0.553-1.539 1.18-1.641 1.678-0.032 0.159-0.008 0.362 0.156 0.456l0.263 0.132c0.114 0.057 0.234 0.086 0.357 0.086 0.659 0 1.425-0.821 2.48-2.662 1.218-0.396 2.604-0.726 3.819-0.908 0.926 0.521 2.065 0.883 2.783 0.883 0.128 0 0.238-0.012 0.327-0.036 0.138-0.037 0.254-0.115 0.325-0.222 0.139-0.21 0.168-0.499 0.13-0.795-0.011-0.088-0.081-0.196-0.157-0.271zM3.307 12.72c0.12-0.329 0.596-0.979 1.3-1.556 0.044-0.036 0.153-0.138 0.253-0.233-0.736 1.174-1.229 1.642-1.553 1.788zM7.476 3.12c0.212 0 0.333 0.534 0.343 1.035s-0.107 0.853-0.252 1.113c-0.12-0.385-0.179-0.992-0.179-1.389 0 0-0.009-0.759 0.088-0.759v0zM6.232 9.961c0.148-0.264 0.301-0.543 0.458-0.839 0.383-0.724 0.624-1.29 0.804-1.755 0.358 0.651 0.804 1.205 1.328 1.649 0.065 0.055 0.135 0.111 0.207 0.166-1.066 0.211-1.987 0.467-2.798 0.779v0zM12.952 9.901c-0.065 0.041-0.251 0.064-0.37 0.064-0.386 0-0.864-0.176-1.533-0.464 0.257-0.019 0.493-0.029 0.705-0.029 0.387 0 0.502-0.002 0.88 0.095s0.383 0.293 0.318 0.333v0z"></path>
<path d="M14.341 3.579c-0.347-0.473-0.831-1.027-1.362-1.558s-1.085-1.015-1.558-1.362c-0.806-0.591-1.197-0.659-1.421-0.659h-7.75c-0.689 0-1.25 0.561-1.25 1.25v13.5c0 0.689 0.561 1.25 1.25 1.25h11.5c0.689 0 1.25-0.561 1.25-1.25v-9.75c0-0.224-0.068-0.615-0.659-1.421v0zM12.271 2.729c0.48 0.48 0.856 0.912 1.134 1.271h-2.406v-2.405c0.359 0.278 0.792 0.654 1.271 1.134v0zM14 14.75c0 0.136-0.114 0.25-0.25 0.25h-11.5c-0.135 0-0.25-0.114-0.25-0.25v-13.5c0-0.135 0.115-0.25 0.25-0.25 0 0 7.749-0 7.75 0v3.5c0 0.276 0.224 0.5 0.5 0.5h3.5v9.75z"></path>
</svg>
</svg>
